<?xml version="1.0" encoding="UTF-8"?>
<svg xmlns="http://www.w3.org/2000/svg" xmlns:xlink="http://www.w3.org/1999/xlink" width="113px" height="150px" viewBox="0 0 113 150" version="1.1">
<g id="surface1">
<path style=" stroke:none;fill-rule:nonzero;fill:rgb(16.862745%,16.470588%,16.078431%);fill-opacity:1;" d="M 62.347656 98.078125 L 53.191406 98.078125 C 53.164062 95.734375 53.152344 94.320312 53.152344 93.800781 C 53.152344 88.550781 53.644531 84.230469 54.625 80.84375 C 55.605469 77.4375 57.578125 73.640625 60.523438 69.386719 C 63.464844 65.15625 65.230469 62.378906 65.792969 61.054688 C 66.6875 58.992188 67.128906 56.691406 67.128906 54.195312 C 67.128906 50.722656 66.347656 47.75 64.777344 45.253906 C 63.207031 42.78125 61.097656 41.542969 58.4375 41.542969 C 55.875 41.542969 53.730469 42.847656 52 45.429688 C 50.285156 48.011719 49.09375 51.960938 48.445312 57.257812 L 39.1875 55.214844 C 39.445312 47.621094 41.273438 41.175781 44.65625 35.878906 C 48.050781 30.585938 52.492188 27.9375 58.007812 27.9375 C 63.796875 27.9375 68.40625 30.628906 71.839844 35.988281 C 75.261719 41.347656 76.976562 47.578125 76.976562 54.71875 C 76.976562 58.644531 76.339844 62.378906 75.089844 65.894531 C 73.824219 69.410156 71.140625 74.203125 67.019531 80.257812 C 64.886719 83.40625 63.5625 85.921875 63.046875 87.832031 C 62.53125 89.742188 62.300781 93.148438 62.347656 98.078125 Z M 53.191406 122.101562 L 53.191406 104.238281 L 63.28125 104.238281 L 63.28125 122.101562 Z M 53.191406 122.101562 "/>
</g>
</svg>
